ply
format ascii 1.0
element vertex 400
property float x
property float y
property float z
element face 717
property list uchar int vertex_indices
end_header
1.34216 -0.00259561 0.00330862
1.42658 0 0.463526
1.21353 0 0.881678
0.815593 -0.00485165 1.09389
0.42384 -0.00530216 1.29144
-0 0 1.5
-0.463526 0 1.42658
-0.881678 0 1.21353
-1.0906 -0.00485581 0.815575
-1.25957 -0.00551117 0.423735
-1.29045 -0.00341177 0.00965056
-1.19793 -0.0012418 -0.398647
-1.05227 -0.00261434 -0.789521
-0.881678 0 -1.21353
-0.463526 0 -1.42658
0 0 -1.5
0.463526 0 -1.42658
0.881678 0 -1.21353
1.21353 0 -0.881678
1.26408 -0.00313301 -0.431158
1.24796 0.135428 -0.0137953
1.20921 0.134615 0.386528
1.05825 0.134683 0.748565
0.766212 0.133731 1.01584
0.398028 0.132687 1.18082
0.00686669 0.133399 1.27078
-0.387943 0.134448 1.24118
-0.749034 0.134582 1.06479
-1.0144 0.133694 0.767636
-1.16746 0.132606 0.398364
-1.21261 0.132753 0.010402
-1.13986 0.133562 -0.370126
-0.971394 0.133846 -0.718962
-0.734296 0.134114 -1.02259
-0.411669 0.134597 -1.23234
-0.0170515 0.13468 -1.30637
0.385965 0.134694 -1.24941
0.750284 0.134453 -1.06938
1.03431 0.133946 -0.784378
1.18796 0.133124 -0.419048
1.1529 0.25496 -0.0236287
1.09383 0.253036 0.338935
0.941059 0.252286 0.664615
0.692886 0.251879 0.919648
0.370049 0.251424 1.0801
0.0127176 0.251295 1.14183
-0.343354 0.251588 1.10079
-0.666119 0.251838 0.949029
-0.919635 0.251731 0.695859
-1.07593 0.25136 0.370979
-1.12451 0.251148 0.0139656
-1.06414 0.2513 -0.338261
-0.903777 0.251527 -0.656137
-0.663665 0.251665 -0.915665
-0.361564 0.251818 -1.09221
-0.0156793 0.251939 -1.16122
0.340508 0.251976 -1.11314
0.663959 0.251542 -0.954831
0.917888 0.250556 -0.703481
1.0745 0.249661 -0.384464
1.04486 0.346644 -0.0290459
0.991993 0.344289 0.296455
0.848056 0.343044 0.590258
0.624426 0.342473 0.823601
0.338694 0.342165 0.973911
0.0189426 0.341993 1.0292
-0.301986 0.341991 0.986807
-0.592742 0.342085 0.849236
-0.824436 0.342122 0.626455
-0.973025 0.34204 0.339756
-1.02419 0.341925 0.0196094
-0.974544 0.341901 -0.300461
-0.83059 0.341969 -0.589478
-0.608097 0.342047 -0.821572
-0.32861 0.342111 -0.97579
-0.0161363 0.342169 -1.03601
0.301389 0.342206 -0.994318
0.589802 0.34161 -0.854601
0.817294 0.340173 -0.631962
0.961732 0.338744 -0.349574
0.928915 0.402984 -0.0340266
0.886092 0.400467 0.254198
0.759028 0.398969 0.515826
0.560376 0.398204 0.725393
0.308038 0.397841 0.862589
0.0255697 0.397667 0.914732
-0.25935 0.397598 0.877904
-0.518595 0.3976 0.756039
-0.726656 0.397622 0.560122
-0.862805 0.397616 0.30846
-0.913483 0.39758 0.0259522
-0.874075 0.397551 -0.258827
-0.749138 0.397555 -0.517539
-0.551658 0.397583 -0.725352
-0.301312 0.397614 -0.862792
-0.021921 0.39764 -0.916653
0.260409 0.397661 -0.881119
0.516415 0.396946 -0.759518
0.719002 0.395154 -0.564575
0.84905 0.393156 -0.316446
0.810873 0.419192 -0.0380732
0.777567 0.416747 0.213262
0.669329 0.415167 0.442602
0.497219 0.414286 0.627656
0.277696 0.413846 0.750457
0.0315597 0.41364 0.799248
-0.217485 0.413549 0.769701
-0.445112 0.413517 0.665065
-0.628991 0.413514 0.495511
-0.751019 0.413516 0.277283
-0.799132 0.413508 0.0315872
-0.768636 0.413495 -0.217316
-0.662727 0.413489 -0.444771
-0.492088 0.413495 -0.628484
-0.273677 0.413506 -0.750732
-0.0288316 0.413518 -0.799795
0.218863 0.413529 -0.770848
0.443776 0.412758 -0.666982
0.62249 0.410759 -0.498987
0.738197 0.408314 -0.283931
0.698635 0.394036 -0.0394127
0.67311 0.391894 0.177242
0.582296 0.390387 0.37579
0.435463 0.38948 0.536953
0.246923 0.388994 0.645063
0.0348225 0.388756 0.689658
-0.180384 0.388646 0.666546
-0.377795 0.388599 0.578179
-0.538129 0.388583 0.433291
-0.645675 0.388579 0.245997
-0.689862 0.388577 0.0345269
-0.666344 0.388573 -0.18042
-0.577467 0.388569 -0.377709
-0.432041 0.388569 -0.537953
-0.244426 0.388572 -0.645503
-0.0330434 0.388577 -0.689933
0.181491 0.388581 -0.666949
0.376994 0.38783 -0.579245
0.533183 0.385808 -0.435954
0.635143 0.383117 -0.251412
0.601812 0.331044 -0.0358054
0.58151 0.329339 0.150804
0.504216 0.327981 0.322229
0.378238 0.32753 0.462232
0.215791 0.327238 0.55643
0.0326206 0.32704 0.595825
-0.153418 0.326931 0.576672
-0.324338 0.326879 0.501001
-0.463378 0.326856 0.37629
-0.557047 0.326848 0.214737
-0.596087 0.326845 0.0321812
-0.576729 0.327195 -0.153979
-0.500949 0.32731 -0.324849
-0.376155 0.326578 -0.463127
-0.214386 0.326273 -0.556395
-0.0312128 0.326953 -0.595952
0.154609 0.327248 -0.577063
0.324031 0.326396 -0.501683
0.460094 0.32454 -0.378149
0.549055 0.321705 -0.218764
0.53319 0.241356 -0.0236958
0.514722 0.240361 0.140822
0.443171 0.236171 0.288924
0.330061 0.238691 0.414826
0.185742 0.239605 0.497962
0.0216379 0.239667 0.530687
-0.143187 0.239617 0.512064
-0.294835 0.23958 0.441955
-0.417045 0.239559 0.330039
-0.498427 0.23955 0.184236
-0.531444 0.239546 0.0219066
-0.511513 0.239954 -0.144306
-0.443437 0.242891 -0.298215
-0.330757 0.239269 -0.416896
-0.186131 0.235005 -0.493946
-0.0209803 0.238362 -0.529445
0.146745 0.242571 -0.513642
0.295024 0.239875 -0.443431
0.415702 0.238488 -0.330164
0.493841 0.236065 -0.18705
0.500027 0.131073 -0.00937286
0.498802 0.154509 0.162071
0.409811 0.127223 0.281769
0.298919 0.126099 0.39406
0.162071 0.154509 0.498802
0.00881187 0.131382 0.500297
-0.162071 0.154509 0.498802
-0.287134 0.131369 0.409917
-0.424307 0.154509 0.308277
-0.473296 0.131354 0.162843
-0.524472 0.154509 -0
-0.478629 0.13142 -0.146513
-0.424307 0.154509 -0.308277
-0.308277 0.154509 -0.424306
-0.1649 0.126786 -0.468825
-0.00923864 0.125777 -0.494424
0.162071 0.154509 -0.498802
0.308277 0.154509 -0.424306
0.39964 0.13123 -0.301396
0.498802 0.154509 -0.162071
0.5 -0 0
0.475528 -0 0.154509
0.404509 -0 0.293893
0.293893 -0 0.404509
0.154508 -0 0.475528
-0 -0 0.5
-0.154509 -0 0.475528
-0.293893 -0 0.404509
-0.404509 -0 0.293893
-0.475528 -0 0.154509
-0.5 -0 -0
-0.475528 -0 -0.154508
-0.404508 -0 -0.293893
-0.293893 -0 -0.404508
-0.154509 -0 -0.475528
0 -0 -0.5
0.154509 -0 -0.475528
0.293893 -0 -0.404508
0.404508 -0 -0.293893
0.475528 -0 -0.154508
0.524472 -0.154508 0
0.498802 -0.154508 0.162071
0.424307 -0.154508 0.308277
0.308277 -0.154508 0.424307
0.162071 -0.154508 0.498802
-0 -0.154508 0.524472
-0.162071 -0.154508 0.498802
-0.308277 -0.154508 0.424307
-0.424307 -0.154508 0.308277
-0.498802 -0.154508 0.162071
-0.524472 -0.154508 -0
-0.498802 -0.154508 -0.162071
-0.410488 -0.141513 -0.312452
-0.308277 -0.154508 -0.424306
-0.162071 -0.154508 -0.498802
0 -0.154508 -0.524472
0.162071 -0.154508 -0.498802
0.308277 -0.154508 -0.424306
0.424307 -0.154508 -0.308277
0.498802 -0.154508 -0.162071
0.570006 -0.264592 0.0256864
0.532209 -0.26296 0.20188
0.443187 -0.262443 0.356911
0.311029 -0.26228 0.476544
0.148497 -0.262231 0.549379
-0.0285523 -0.262217 0.568392
-0.202801 -0.262213 0.531753
-0.357197 -0.262213 0.443059
-0.476628 -0.262212 0.310995
-0.549402 -0.262212 0.148488
-0.568366 -0.262176 -0.0285749
-0.531384 -0.261829 -0.20298
-0.440186 -0.259462 -0.358161
-0.307937 -0.259303 -0.477616
-0.147845 -0.261589 -0.549631
0.0287033 -0.262065 -0.568457
0.202838 -0.262176 -0.53177
0.356865 -0.261847 -0.442708
0.475415 -0.261177 -0.310156
0.547446 -0.26097 -0.148059
0.650443 -0.351452 0.0479397
0.600391 -0.349158 0.248521
0.492717 -0.348037 0.422871
0.33738 -0.347593 0.554836
0.149232 -0.347435 0.632084
-0.053453 -0.347383 0.647312
-0.250884 -0.347367 0.599127
-0.42375 -0.347363 0.492281
-0.555134 -0.347361 0.337242
-0.632178 -0.347361 0.149191
-0.647324 -0.347344 -0.0534743
-0.598983 -0.347202 -0.250964
-0.491541 -0.346629 -0.42404
-0.335957 -0.346115 -0.555593
-0.148254 -0.346455 -0.63251
0.0538034 -0.347028 -0.647468
0.250993 -0.347255 -0.599178
0.423098 -0.346754 -0.491711
0.552657 -0.345502 -0.335738
0.627735 -0.344518 -0.147962
0.753001 -0.405342 0.0653618
0.691118 -0.402828 0.297055
0.563098 -0.401372 0.497403
0.380798 -0.400667 0.647716
0.161609 -0.400371 0.733964
-0.0732465 -0.40026 0.748087
-0.300878 -0.400221 0.688876
-0.499041 -0.400209 0.562195
-0.648348 -0.400205 0.380471
-0.734189 -0.400204 0.1615
-0.748157 -0.400198 -0.0732838
-0.688851 -0.400153 -0.300914
-0.561993 -0.399991 -0.499136
-0.380027 -0.399762 -0.648526
-0.160992 -0.399705 -0.734382
0.0736173 -0.399872 -0.748291
0.301039 -0.400054 -0.688959
0.498016 -0.399434 -0.56148
0.644442 -0.397757 -0.378514
0.726998 -0.396025 -0.159715
0.867791 -0.421087 0.0776217
0.800751 -0.420424 0.345364
0.654484 -0.41957 0.576588
0.440657 -0.417519 0.747599
0.184803 -0.415815 0.844107
-0.086912 -0.415876 0.861116
-0.350259 -0.41746 0.797491
-0.578855 -0.418106 0.653085
-0.748565 -0.416864 0.440102
-0.846968 -0.416324 0.184919
-0.867039 -0.417587 -0.0862345
-0.80007 -0.418119 -0.348611
-0.649842 -0.416808 -0.575934
-0.436384 -0.4154 -0.746171
-0.183206 -0.415562 -0.84607
0.086884 -0.417226 -0.866829
0.348841 -0.417966 -0.800066
0.574464 -0.416025 -0.649072
0.740636 -0.412779 -0.434329
0.833758 -0.410043 -0.18099
0.992725 -0.399014 0.0833533
0.941293 -0.406482 0.392356
0.795411 -0.413196 0.66717
0.539878 -0.406954 0.86447
0.228957 -0.397799 0.967988
-0.0891297 -0.396139 0.989308
-0.396443 -0.40423 0.938534
-0.669169 -0.412003 0.794101
-0.86315 -0.405847 0.538633
-0.968919 -0.398145 0.227914
-1.01324 -0.404335 -0.0856064
-0.961781 -0.412044 -0.390697
-0.780289 -0.406345 -0.656344
-0.516724 -0.397458 -0.850367
-0.220829 -0.395929 -0.968675
0.0871192 -0.404089 -1.01522
0.391104 -0.411913 -0.962077
0.652911 -0.405129 -0.778276
0.840105 -0.393826 -0.51155
0.949337 -0.388539 -0.214954
1.15203 -0.349261 0.0703681
1.10081 -0.357842 0.427696
1.04678 -0.404508 0.760531
0.760531 -0.404508 1.04678
0.318195 -0.359726 1.13265
-0.0662316 -0.351105 1.15765
-0.42865 -0.357295 1.10072
-0.760531 -0.404508 1.04678
-1.04678 -0.404508 0.760531
-1.11111 -0.355594 0.312626
-1.15561 -0.354079 -0.0679409
-1.23057 -0.404508 -0.399835
-1.04678 -0.404508 -0.760531
-0.65255 -0.359555 -0.979162
-0.29468 -0.350977 -1.12163
0.067577 -0.357215 -1.1794
0.399835 -0.404508 -1.23057
0.760531 -0.404508 -1.04678
0.956227 -0.353137 -0.638074
1.08959 -0.341069 -0.276932
1.40451 -0.293893 0
1.33577 -0.293893 0.434017
1.13627 -0.293893 0.825549
0.825549 -0.293893 1.13627
0.434017 -0.293893 1.33577
-0 -0.293893 1.40451
-0.434017 -0.293893 1.33577
-0.825549 -0.293893 1.13627
-1.13627 -0.293893 0.825549
-1.33577 -0.293893 0.434017
-1.25047 -0.264064 -0.0302951
-1.33577 -0.293893 -0.434017
-1.13627 -0.293893 -0.82555
-0.82555 -0.293893 -1.13627
-0.434017 -0.293893 -1.33577
0 -0.293893 -1.40451
0.434017 -0.293893 -1.33577
0.82555 -0.293893 -1.13627
1.13627 -0.293893 -0.825549
1.22475 -0.263634 -0.359205
1.47553 -0.154508 0
1.40331 -0.154508 0.455963
1.19373 -0.154508 0.867294
0.867294 -0.154508 1.19373
0.455963 -0.154508 1.40331
-0 -0.154508 1.47553
-0.455963 -0.154508 1.40331
-0.867294 -0.154508 1.19373
-1.19373 -0.154508 0.867294
-1.40331 -0.154508 0.455963
-1.28726 -0.143399 0.0072689
-1.21957 -0.143287 -0.418751
-1.19373 -0.154508 -0.867294
-0.867294 -0.154508 -1.19373
-0.455963 -0.154508 -1.40331
0 -0.154508 -1.47553
0.455963 -0.154508 -1.40331
0.867294 -0.154508 -1.19373
1.19373 -0.154508 -0.867294
1.27275 -0.145379 -0.413316
3 0 1 21
3 0 21 20
3 1 2 22
3 1 22 21
3 2 3 23
3 2 23 22
3 3 4 24
3 3 24 23
3 4 5 25
3 4 25 24
3 5 6 26
3 5 26 25
3 6 7 27
3 6 27 26
3 7 8 28
3 7 28 27
3 8 9 29
3 8 29 28
3 9 10 30
3 9 30 29
3 10 11 31
3 10 31 30
3 11 12 32
3 11 32 31
3 12 13 33
3 12 33 32
3 13 14 34
3 13 34 33
3 14 15 35
3 14 35 34
3 15 16 36
3 15 36 35
3 16 17 37
3 16 37 36
3 17 18 38
3 17 38 37
3 18 19 39
3 18 39 38
3 19 0 20
3 19 20 39
3 20 21 41
3 20 41 40
3 21 22 42
3 21 42 41
3 22 23 43
3 22 43 42
3 23 24 44
3 23 44 43
3 24 25 45
3 24 45 44
3 25 26 46
3 25 46 45
3 26 27 47
3 26 47 46
3 27 28 48
3 27 48 47
3 28 29 49
3 28 49 48
3 29 30 50
3 29 50 49
3 30 31 51
3 30 51 50
3 31 32 52
3 31 52 51
3 32 33 53
3 32 53 52
3 33 34 54
3 33 54 53
3 34 35 55
3 34 55 54
3 35 36 56
3 35 56 55
3 36 37 57
3 36 57 56
3 37 38 58
3 37 58 57
3 38 39 59
3 38 59 58
3 39 20 40
3 39 40 59
3 40 41 61
3 40 61 60
3 41 42 62
3 41 62 61
3 42 43 63
3 42 63 62
3 43 44 64
3 43 64 63
3 44 45 65
3 44 65 64
3 45 46 66
3 45 66 65
3 46 47 67
3 46 67 66
3 47 48 68
3 47 68 67
3 48 49 69
3 48 69 68
3 49 50 70
3 49 70 69
3 50 51 71
3 50 71 70
3 51 52 72
3 51 72 71
3 52 53 73
3 52 73 72
3 53 54 74
3 53 74 73
3 54 55 75
3 54 75 74
3 55 56 76
3 55 76 75
3 56 57 77
3 56 77 76
3 57 58 78
3 57 78 77
3 58 59 79
3 58 79 78
3 59 40 60
3 59 60 79
3 60 61 81
3 60 81 80
3 61 62 82
3 61 82 81
3 62 63 83
3 62 83 82
3 63 64 84
3 63 84 83
3 64 65 85
3 64 85 84
3 65 66 86
3 65 86 85
3 66 67 87
3 66 87 86
3 67 68 88
3 67 88 87
3 68 69 89
3 68 89 88
3 69 70 90
3 69 90 89
3 70 71 91
3 70 91 90
3 71 72 92
3 71 92 91
3 72 73 93
3 72 93 92
3 73 74 94
3 73 94 93
3 74 75 95
3 74 95 94
3 75 76 96
3 75 96 95
3 76 77 97
3 76 97 96
3 77 78 98
3 77 98 97
3 78 79 99
3 78 99 98
3 79 60 80
3 79 80 99
3 80 81 101
3 80 101 100
3 81 82 102
3 81 102 101
3 82 83 103
3 82 103 102
3 83 84 104
3 83 104 103
3 84 85 105
3 84 105 104
3 85 86 106
3 85 106 105
3 86 87 107
3 86 107 106
3 87 88 108
3 87 108 107
3 88 89 109
3 88 109 108
3 89 90 110
3 89 110 109
3 90 91 111
3 90 111 110
3 91 92 112
3 91 112 111
3 92 93 113
3 92 113 112
3 93 94 114
3 93 114 113
3 94 95 115
3 94 115 114
3 95 96 116
3 95 116 115
3 96 97 117
3 96 117 116
3 97 98 118
3 97 118 117
3 98 99 119
3 98 119 118
3 99 80 100
3 99 100 119
3 100 101 121
3 100 121 120
3 101 102 122
3 101 122 121
3 102 103 123
3 102 123 122
3 103 104 124
3 103 124 123
3 104 105 125
3 104 125 124
3 105 106 126
3 105 126 125
3 106 107 127
3 106 127 126
3 107 108 128
3 107 128 127
3 108 109 129
3 108 129 128
3 109 110 130
3 109 130 129
3 110 111 131
3 110 131 130
3 111 112 132
3 111 132 131
3 112 113 133
3 112 133 132
3 113 114 134
3 113 134 133
3 114 115 135
3 114 135 134
3 115 116 136
3 115 136 135
3 116 117 137
3 116 137 136
3 117 118 138
3 117 138 137
3 118 119 139
3 118 139 138
3 119 100 120
3 119 120 139
3 120 121 141
3 120 141 140
3 121 122 142
3 121 142 141
3 122 123 143
3 122 143 142
3 123 124 144
3 123 144 143
3 124 125 145
3 124 145 144
3 125 126 146
3 125 146 145
3 126 127 147
3 126 147 146
3 127 128 148
3 127 148 147
3 128 129 149
3 128 149 148
3 129 130 150
3 129 150 149
3 130 131 151
3 130 151 150
3 131 132 152
3 131 152 151
3 132 133 153
3 132 153 152
3 133 134 154
3 133 154 153
3 134 135 155
3 134 155 154
3 135 136 156
3 135 156 155
3 136 137 157
3 136 157 156
3 137 138 158
3 137 158 157
3 138 139 159
3 138 159 158
3 139 120 140
3 139 140 159
3 140 141 161
3 140 161 160
3 141 142 162
3 141 162 161
3 142 143 163
3 142 163 162
3 143 144 164
3 143 164 163
3 144 145 165
3 144 165 164
3 145 146 166
3 145 166 165
3 146 147 167
3 146 167 166
3 147 148 168
3 147 168 167
3 148 149 169
3 148 169 168
3 149 150 170
3 149 170 169
3 150 151 171
3 150 171 170
3 151 152 172
3 151 172 171
3 152 153 173
3 152 173 172
3 153 154 174
3 153 174 173
3 154 155 175
3 154 175 174
3 155 156 176
3 155 176 175
3 156 157 177
3 156 177 176
3 157 158 178
3 157 178 177
3 158 159 179
3 158 179 178
3 159 140 160
3 159 160 179
3 160 161 181
3 160 181 180
3 161 162 182
3 161 182 181
3 162 163 183
3 162 183 182
3 163 164 184
3 163 184 183
3 164 165 185
3 164 185 184
3 165 166 186
3 165 186 185
3 166 167 187
3 166 187 186
3 167 168 188
3 167 188 187
3 168 169 189
3 168 189 188
3 169 170 190
3 169 190 189
3 170 171 191
3 170 191 190
3 171 172 192
3 171 192 191
3 172 173 193
3 172 193 192
3 173 174 194
3 173 194 193
3 174 175 195
3 174 195 194
3 175 176 196
3 175 196 195
3 176 177 197
3 176 197 196
3 177 178 198
3 177 198 197
3 178 179 199
3 178 199 198
3 179 160 180
3 179 180 199
3 180 181 201
3 180 201 200
3 181 182 202
3 182 183 203
3 182 203 202
3 183 184 204
3 183 204 203
3 184 185 205
3 185 186 206
3 185 206 205
3 186 187 207
3 187 188 208
3 187 208 207
3 188 189 209
3 189 190 210
3 189 210 209
3 190 191 211
3 191 192 212
3 191 212 211
3 192 193 213
3 193 194 214
3 194 195 215
3 194 215 214
3 195 196 216
3 195 216 215
3 196 197 217
3 197 198 218
3 198 199 219
3 198 219 218
3 199 180 200
3 200 221 220
3 201 222 221
3 202 223 222
3 203 224 223
3 204 225 224
3 205 226 225
3 206 227 226
3 207 228 227
3 208 229 228
3 209 230 229
3 210 231 230
3 211 212 232
3 211 232 231
3 212 233 232
3 213 234 233
3 214 235 234
3 215 236 235
3 216 237 236
3 217 238 237
3 218 239 238
3 219 220 239
3 220 221 241
3 220 241 240
3 221 222 242
3 221 242 241
3 222 223 243
3 222 243 242
3 223 224 244
3 223 244 243
3 224 225 245
3 224 245 244
3 225 226 246
3 225 246 245
3 226 227 247
3 226 247 246
3 227 228 248
3 227 248 247
3 228 229 249
3 228 249 248
3 229 230 250
3 229 250 249
3 230 231 251
3 230 251 250
3 231 232 252
3 231 252 251
3 232 233 253
3 232 253 252
3 233 234 254
3 233 254 253
3 234 235 255
3 234 255 254
3 235 236 256
3 235 256 255
3 236 237 257
3 236 257 256
3 237 238 258
3 237 258 257
3 238 239 259
3 238 259 258
3 239 220 240
3 239 240 259
3 240 241 261
3 240 261 260
3 241 242 262
3 241 262 261
3 242 243 263
3 242 263 262
3 243 244 264
3 243 264 263
3 244 245 265
3 244 265 264
3 245 246 266
3 245 266 265
3 246 247 267
3 246 267 266
3 247 248 268
3 247 268 267
3 248 249 269
3 248 269 268
3 249 250 270
3 249 270 269
3 250 251 271
3 250 271 270
3 251 252 272
3 251 272 271
3 252 253 273
3 252 273 272
3 253 254 274
3 253 274 273
3 254 255 275
3 254 275 274
3 255 256 276
3 255 276 275
3 256 257 277
3 256 277 276
3 257 258 278
3 257 278 277
3 258 259 279
3 258 279 278
3 259 240 260
3 259 260 279
3 260 261 281
3 260 281 280
3 261 262 282
3 261 282 281
3 262 263 283
3 262 283 282
3 263 264 284
3 263 284 283
3 264 265 285
3 264 285 284
3 265 266 286
3 265 286 285
3 266 267 287
3 266 287 286
3 267 268 288
3 267 288 287
3 268 269 289
3 268 289 288
3 269 270 290
3 269 290 289
3 270 271 291
3 270 291 290
3 271 272 292
3 271 292 291
3 272 273 293
3 272 293 292
3 273 274 294
3 273 294 293
3 274 275 295
3 274 295 294
3 275 276 296
3 275 296 295
3 276 277 297
3 276 297 296
3 277 278 298
3 277 298 297
3 278 279 299
3 278 299 298
3 279 260 280
3 279 280 299
3 280 281 301
3 280 301 300
3 281 282 302
3 281 302 301
3 282 283 303
3 282 303 302
3 283 284 304
3 283 304 303
3 284 285 305
3 284 305 304
3 285 286 306
3 285 306 305
3 286 287 307
3 286 307 306
3 287 288 308
3 287 308 307
3 288 289 309
3 288 309 308
3 289 290 310
3 289 310 309
3 290 291 311
3 290 311 310
3 291 292 312
3 291 312 311
3 292 293 313
3 292 313 312
3 293 294 314
3 293 314 313
3 294 295 315
3 294 315 314
3 295 296 316
3 295 316 315
3 296 297 317
3 296 317 316
3 297 298 318
3 297 318 317
3 298 299 319
3 298 319 318
3 299 280 300
3 299 300 319
3 300 301 321
3 300 321 320
3 301 302 322
3 301 322 321
3 302 303 323
3 302 323 322
3 303 304 324
3 303 324 323
3 304 305 325
3 304 325 324
3 305 306 326
3 305 326 325
3 306 307 327
3 306 327 326
3 307 308 328
3 307 328 327
3 308 309 329
3 308 329 328
3 309 310 330
3 309 330 329
3 310 311 331
3 310 331 330
3 311 312 332
3 311 332 331
3 312 313 333
3 312 333 332
3 313 314 334
3 313 334 333
3 314 315 335
3 314 335 334
3 315 316 336
3 315 336 335
3 316 317 337
3 316 337 336
3 317 318 338
3 317 338 337
3 318 319 339
3 318 339 338
3 319 300 320
3 319 320 339
3 320 321 341
3 320 341 340
3 321 322 342
3 321 342 341
3 322 323 343
3 322 343 342
3 323 324 344
3 323 344 343
3 324 325 345
3 324 345 344
3 325 326 346
3 325 346 345
3 326 327 347
3 326 347 346
3 327 328 348
3 327 348 347
3 328 329 349
3 328 349 348
3 329 330 350
3 329 350 349
3 330 331 351
3 330 351 350
3 331 332 352
3 331 352 351
3 332 333 353
3 332 353 352
3 333 334 354
3 333 354 353
3 334 335 355
3 334 355 354
3 335 336 356
3 335 356 355
3 336 337 357
3 336 357 356
3 337 338 358
3 337 358 357
3 338 339 359
3 338 359 358
3 339 320 340
3 339 340 359
3 340 341 361
3 340 361 360
3 341 342 362
3 341 362 361
3 343 344 364
3 344 345 365
3 344 365 364
3 345 346 366
3 345 366 365
3 346 347 367
3 346 367 366
3 348 349 369
3 349 350 370
3 349 370 369
3 350 351 371
3 350 371 370
3 352 353 373
3 353 354 374
3 353 374 373
3 354 355 375
3 354 375 374
3 355 356 376
3 355 376 375
3 357 358 378
3 358 359 379
3 358 379 378
3 359 340 360
3 359 360 379
3 361 362 382
3 362 383 382
3 366 367 387
3 367 388 387
3 369 370 390
3 369 390 389
3 370 371 391
3 370 391 390
3 371 392 391
3 373 374 394
3 375 376 396
3 378 379 399
3 378 399 398
3 379 360 380
3 379 380 399
3 380 1 0
3 382 383 3
3 382 3 2
3 383 384 4
3 383 4 3
3 384 5 4
3 387 388 8
3 387 8 7
3 388 389 9
3 388 9 8
3 389 390 10
3 389 10 9
3 390 391 11
3 390 11 10
3 391 392 12
3 391 12 11
3 392 13 12
3 394 15 14
3 396 17 16
3 398 399 19
3 398 19 18
3 399 380 0
3 399 0 19
