ply
format ascii 1.0
element vertex 314
property float x
property float y
property float z
element face 557
property list uchar int vertex_indices
end_header
-3.35465 -8.0813 -1.36719e-09
-3.25083 -9.45686 -1.36719e-09
-3.18978 -8.63621 -1.36719e-09
-3.05805 -9.24257 -1.36719e-09
-2.95235 -8.9767 -1.36719e-09
-2.92713 -6.96615 -1.36719e-09
-2.65387 -5.17446 -1.36719e-09
-2.49693 -5.43131 -1.36719e-09
-2.4722 -5.87522 -1.36719e-09
-2.37209 -8.0813 -2.37209
-2.37209 -8.0813 2.37209
-2.29868 -9.45686 -2.29868
-2.29868 -9.45686 2.29868
-2.29772 0.546218 -1.36719e-09
-2.25552 -8.63621 -2.25552
-2.25552 -8.63621 2.25552
-2.17373 -5.18743 -1.36719e-09
-2.16237 -9.24257 -2.16237
-2.16237 -9.24257 2.16237
-2.15449 -5.14251 -1.36719e-09
-2.11848 0.91731 -1.36719e-09
-2.08763 -8.9767 -2.08763
-2.08763 -8.9767 2.08763
-2.06979 -6.96615 -2.06979
-2.06979 -6.96615 2.06979
-1.87658 -5.17446 -1.87658
-1.87658 -5.17446 1.87658
-1.7656 -5.43131 -1.7656
-1.7656 -5.43131 1.7656
-1.75847 4.79184 -1.36719e-09
-1.74812 -5.87522 -1.74812
-1.74812 -5.87522 1.74812
-1.62472 0.546218 -1.62472
-1.62472 0.546218 1.62472
-1.55648 0.0945486 -1.36719e-09
-1.53707 -5.18743 -1.53707
-1.53707 -5.18743 1.53707
-1.52346 -5.14251 -1.52346
-1.52346 -5.14251 1.52346
-1.49799 0.91731 -1.49799
-1.49799 0.91731 1.49799
-1.48595 -9.4309 -1.36719e-09
-1.44345 3.61804 -1.36719e-09
-1.40855 1.29161 -1.36719e-09
-1.40145 5.06868 -1.36719e-09
-1.3935 1.29482 -1.36719e-09
-1.38912 1.60961 -1.36719e-09
-1.24343 4.79184 -1.24343
-1.24343 4.79184 1.24343
-1.19429 -2.74342 -1.36719e-09
-1.1096 6.42687 -1.36719e-09
-1.1006 0.0945486 -1.1006
-1.1006 0.0945486 1.1006
-1.09663 6.933 -1.36719e-09
-1.08366 1.63848 -1.36719e-09
-1.08023 1.63807 -1.36719e-09
-1.06959 1.85649 -1.36719e-09
-1.05795 5.50701 -1.36719e-09
-1.05771 2.04076 -1.36719e-09
-1.05771 2.44304 -1.36719e-09
-1.05073 -9.4309 -1.05073
-1.05073 -9.4309 1.05073
-1.02833 2.14339 -1.36719e-09
-1.02067 3.61804 -1.02067
-1.02067 3.61804 1.02067
-0.996001 1.29161 -0.996001
-0.996001 1.29161 0.996001
-0.990981 5.06868 -0.990981
-0.990981 5.06868 0.990981
-0.985353 1.29482 -0.985353
-0.985353 1.29482 0.985353
-0.982257 1.60961 -0.982257
-0.982257 1.60961 0.982257
-0.917317 5.18473 -1.36719e-09
-0.914953 5.18122 -1.36719e-09
-0.858062 -0.848235 -1.36719e-09
-0.844496 -2.74342 -0.844496
-0.844496 -2.74342 0.844496
-0.78461 6.42687 -0.78461
-0.78461 6.42687 0.78461
-0.775437 6.933 -0.775437
-0.775437 6.933 0.775437
-0.766258 1.63848 -0.766258
-0.766258 1.63848 0.766258
-0.763834 1.63807 -0.763834
-0.763834 1.63807 0.763834
-0.756317 1.85649 -0.756317
-0.756317 1.85649 0.756317
-0.748088 5.50701 -0.748088
-0.748088 5.50701 0.748088
-0.747913 2.04076 -0.747913
-0.747913 2.04076 0.747913
-0.747913 2.44304 -0.747913
-0.747913 2.44304 0.747913
-0.72714 2.14339 -0.72714
-0.72714 2.14339 0.72714
-0.720309 5.55751 -1.36719e-09
-0.71617 5.55737 -1.36719e-09
-0.648641 5.18473 -0.648641
-0.648641 5.18473 0.648641
-0.64697 5.18122 -0.64697
-0.64697 5.18122 0.64697
-0.60674 -0.848235 -0.60674
-0.60674 -0.848235 0.60674
-0.603506 7.28342 -1.36719e-09
-0.509336 5.55751 -0.509336
-0.509336 5.55751 0.509336
-0.50641 5.55737 -0.50641
-0.50641 5.55737 0.50641
-0.426744 7.28342 -0.426744
-0.426744 7.28342 0.426744
-0.382892 5.89484 -1.36719e-09
-0.369919 6.94609 -1.36719e-09
-0.270746 5.89484 -0.270746
-0.270746 5.89484 0.270746
-0.261572 6.94609 -0.261572
-0.261572 6.94609 0.261572
-1.36719e-09 -8.0813 -3.35465
-1.36719e-09 -9.45686 -3.25083
-1.36719e-09 -8.63621 -3.18978
-1.36719e-09 -9.24257 -3.05805
-1.36719e-09 -8.9767 -2.95235
-1.36719e-09 -6.96615 -2.92713
-1.36719e-09 -5.17446 -2.65387
-1.36719e-09 -5.43131 -2.49693
-1.36719e-09 -5.87522 -2.4722
-1.36719e-09 0.546218 -2.29772
-1.36719e-09 -5.18743 -2.17373
-1.36719e-09 -5.14251 -2.15449
-1.36719e-09 0.91731 -2.11848
-1.36719e-09 4.79184 -1.75847
-1.36719e-09 0.0945486 -1.55648
-1.36719e-09 -9.4309 -1.48595
-1.36719e-09 3.61804 -1.44345
-1.36719e-09 1.29161 -1.40855
-1.36719e-09 5.06868 -1.40145
-1.36719e-09 1.29482 -1.3935
-1.36719e-09 1.60961 -1.38912
-1.36719e-09 -2.74342 -1.19429
-1.36719e-09 6.42687 -1.1096
-1.36719e-09 6.933 -1.09663
-1.36719e-09 1.63848 -1.08366
-1.36719e-09 1.63807 -1.08023
-1.36719e-09 1.85649 -1.06959
-1.36719e-09 5.50701 -1.05795
-1.36719e-09 2.04076 -1.05771
-1.36719e-09 2.44304 -1.05771
-1.36719e-09 2.14339 -1.02833
-1.36719e-09 5.18473 -0.917317
-1.36719e-09 5.18122 -0.914953
-1.36719e-09 -0.848235 -0.858062
-1.36719e-09 5.55751 -0.720309
-1.36719e-09 5.55737 -0.71617
-1.36719e-09 7.28342 -0.603506
-1.36719e-09 5.89484 -0.382892
-1.36719e-09 6.94609 -0.369919
-1.36719e-09 -9.46983 -1.36719e-09
-1.36719e-09 7.29636 -1.36719e-09
-1.36719e-09 6.94609 0.369919
-1.36719e-09 5.89484 0.382892
-1.36719e-09 7.28342 0.603506
-1.36719e-09 5.55737 0.71617
-1.36719e-09 5.55751 0.720309
-1.36719e-09 -0.848235 0.858062
-1.36719e-09 5.18122 0.914953
-1.36719e-09 5.18473 0.917317
-1.36719e-09 2.14339 1.02833
-1.36719e-09 2.04076 1.05771
-1.36719e-09 2.44304 1.05771
-1.36719e-09 5.50701 1.05795
-1.36719e-09 1.85649 1.06959
-1.36719e-09 1.63807 1.08023
-1.36719e-09 1.63848 1.08366
-1.36719e-09 6.933 1.09663
-1.36719e-09 6.42687 1.1096
-1.36719e-09 -2.74342 1.19429
-1.36719e-09 1.60961 1.38912
-1.36719e-09 1.29482 1.3935
-1.36719e-09 5.06868 1.40145
-1.36719e-09 1.29161 1.40855
-1.36719e-09 3.61804 1.44345
-1.36719e-09 -9.4309 1.48595
-1.36719e-09 0.0945486 1.55648
-1.36719e-09 4.79184 1.75847
-1.36719e-09 0.91731 2.11848
-1.36719e-09 -5.14251 2.15449
-1.36719e-09 -5.18743 2.17373
-1.36719e-09 0.546218 2.29772
-1.36719e-09 -5.87522 2.4722
-1.36719e-09 -5.43131 2.49693
-1.36719e-09 -5.17446 2.65387
-1.36719e-09 -6.96615 2.92713
-1.36719e-09 -8.9767 2.95235
-1.36719e-09 -9.24257 3.05805
-1.36719e-09 -8.63621 3.18978
-1.36719e-09 -9.45686 3.25083
-1.36719e-09 -8.0813 3.35465
0.261572 6.94609 -0.261572
0.261572 6.94609 0.261572
0.270746 5.89484 -0.270746
0.270746 5.89484 0.270746
0.369919 6.94609 -1.36719e-09
0.382892 5.89484 -1.36719e-09
0.426744 7.28342 -0.426744
0.426744 7.28342 0.426744
0.50641 5.55737 -0.50641
0.50641 5.55737 0.50641
0.509336 5.55751 -0.509336
0.509336 5.55751 0.509336
0.603506 7.28342 -1.36719e-09
0.60674 -0.848235 -0.60674
0.60674 -0.848235 0.60674
0.64697 5.18122 -0.64697
0.64697 5.18122 0.64697
0.648641 5.18473 -0.648641
0.648641 5.18473 0.648641
0.71617 5.55737 -1.36719e-09
0.720309 5.55751 -1.36719e-09
0.72714 2.14339 -0.72714
0.72714 2.14339 0.72714
0.747913 2.04076 -0.747913
0.747913 2.04076 0.747913
0.747913 2.44304 -0.747913
0.747913 2.44304 0.747913
0.748088 5.50701 -0.748088
0.748088 5.50701 0.748088
0.756317 1.85649 -0.756317
0.756317 1.85649 0.756317
0.763834 1.63807 -0.763834
0.763834 1.63807 0.763834
0.766258 1.63848 -0.766258
0.766258 1.63848 0.766258
0.775437 6.933 -0.775437
0.775437 6.933 0.775437
0.78461 6.42687 -0.78461
0.78461 6.42687 0.78461
0.844496 -2.74342 -0.844496
0.844496 -2.74342 0.844496
0.858062 -0.848235 -1.36719e-09
0.914953 5.18122 -1.36719e-09
0.917317 5.18473 -1.36719e-09
0.982257 1.60961 -0.982257
0.982257 1.60961 0.982257
0.985353 1.29482 -0.985353
0.985353 1.29482 0.985353
0.990981 5.06868 -0.990981
0.990981 5.06868 0.990981
0.996001 1.29161 -0.996001
0.996001 1.29161 0.996001
1.02067 3.61804 -1.02067
1.02067 3.61804 1.02067
1.02833 2.14339 -1.36719e-09
1.05073 -9.4309 -1.05073
1.05073 -9.4309 1.05073
1.05771 2.04076 -1.36719e-09
1.05771 2.44304 -1.36719e-09
1.05795 5.50701 -1.36719e-09
1.06959 1.85649 -1.36719e-09
1.08023 1.63807 -1.36719e-09
1.08366 1.63848 -1.36719e-09
1.09663 6.933 -1.36719e-09
1.1006 0.0945486 -1.1006
1.1006 0.0945486 1.1006
1.1096 6.42687 -1.36719e-09
1.19429 -2.74342 -1.36719e-09
1.24343 4.79184 -1.24343
1.24343 4.79184 1.24343
1.38912 1.60961 -1.36719e-09
1.3935 1.29482 -1.36719e-09
1.40145 5.06868 -1.36719e-09
1.40855 1.29161 -1.36719e-09
1.44345 3.61804 -1.36719e-09
1.48595 -9.4309 -1.36719e-09
1.49799 0.91731 -1.49799
1.49799 0.91731 1.49799
1.52346 -5.14251 -1.52346
1.52346 -5.14251 1.52346
1.53707 -5.18743 -1.53707
1.53707 -5.18743 1.53707
1.55648 0.0945486 -1.36719e-09
1.62472 0.546218 -1.62472
1.62472 0.546218 1.62472
1.74812 -5.87522 -1.74812
1.74812 -5.87522 1.74812
1.75847 4.79184 -1.36719e-09
1.7656 -5.43131 -1.7656
1.7656 -5.43131 1.7656
1.87658 -5.17446 -1.87658
1.87658 -5.17446 1.87658
2.06979 -6.96615 -2.06979
2.06979 -6.96615 2.06979
2.08763 -8.9767 -2.08763
2.08763 -8.9767 2.08763
2.11848 0.91731 -1.36719e-09
2.15449 -5.14251 -1.36719e-09
2.16237 -9.24257 -2.16237
2.16237 -9.24257 2.16237
2.17373 -5.18743 -1.36719e-09
2.25552 -8.63621 -2.25552
2.25552 -8.63621 2.25552
2.29772 0.546218 -1.36719e-09
2.29868 -9.45686 -2.29868
2.29868 -9.45686 2.29868
2.37209 -8.0813 -2.37209
2.37209 -8.0813 2.37209
2.4722 -5.87522 -1.36719e-09
2.49693 -5.43131 -1.36719e-09
2.65387 -5.17446 -1.36719e-09
2.92713 -6.96615 -1.36719e-09
2.95235 -8.9767 -1.36719e-09
3.05805 -9.24257 -1.36719e-09
3.18978 -8.63621 -1.36719e-09
3.25083 -9.45686 -1.36719e-09
3.35465 -8.0813 -1.36719e-09
3 0 2 15
3 0 15 10
3 0 10 5
3 0 5 23
3 0 23 9
3 0 9 2
3 1 12 3
3 1 3 17
3 1 17 11
3 1 11 41
3 1 41 61
3 1 61 12
3 2 4 22
3 2 22 15
3 2 9 14
3 2 14 4
3 3 12 18
3 3 18 4
3 3 4 21
3 3 21 17
3 4 18 22
3 4 14 21
3 5 10 24
3 5 24 8
3 5 8 30
3 5 30 23
3 6 7 28
3 6 28 26
3 6 26 16
3 6 16 35
3 6 35 25
3 6 25 7
3 7 8 31
3 7 31 28
3 7 25 27
3 7 27 8
3 8 24 31
3 8 27 30
3 9 23 122
3 9 122 117
3 9 117 14
3 10 15 194
3 10 194 196
3 10 196 24
3 11 17 120
3 11 120 118
3 11 118 60
3 11 60 41
3 12 195 18
3 12 61 181
3 12 181 195
3 13 34 52
3 13 52 33
3 13 33 20
3 13 20 39
3 13 39 32
3 13 32 34
3 14 117 119
3 14 119 21
3 15 22 192
3 15 192 194
3 16 36 19
3 16 19 37
3 16 37 35
3 16 26 36
3 17 21 121
3 17 121 120
3 18 195 193
3 18 193 22
3 19 36 38
3 19 38 49
3 19 49 76
3 19 76 37
3 20 33 40
3 20 40 45
3 20 45 69
3 20 69 39
3 21 119 121
3 22 193 192
3 23 30 125
3 23 125 122
3 24 196 191
3 24 191 31
3 25 35 127
3 25 127 123
3 25 123 27
3 26 28 189
3 26 189 190
3 26 190 36
3 27 123 124
3 27 124 30
3 28 31 188
3 28 188 189
3 29 42 64
3 29 64 48
3 29 48 44
3 29 44 67
3 29 67 47
3 29 47 42
3 30 124 125
3 31 191 188
3 32 51 34
3 32 39 129
3 32 129 126
3 32 126 51
3 33 52 182
3 33 182 187
3 33 187 40
3 34 75 103
3 34 103 52
3 34 51 75
3 35 37 128
3 35 128 127
3 36 186 38
3 36 190 186
3 37 76 138
3 37 138 128
3 38 186 185
3 38 185 77
3 38 77 49
3 39 69 136
3 39 136 129
3 40 187 184
3 40 184 70
3 40 70 45
3 41 156 61
3 41 60 156
3 42 59 93
3 42 93 64
3 42 47 63
3 42 63 59
3 43 66 46
3 43 46 71
3 43 71 65
3 43 65 45
3 43 45 70
3 43 70 66
3 44 48 68
3 44 68 74
3 44 74 100
3 44 100 67
3 45 65 69
3 46 66 72
3 46 72 55
3 46 55 84
3 46 84 71
3 47 67 135
3 47 135 130
3 47 130 63
3 48 64 180
3 48 180 183
3 48 183 68
3 49 77 75
3 49 75 102
3 49 102 76
3 50 79 53
3 50 53 80
3 50 80 78
3 50 78 111
3 50 111 114
3 50 114 79
3 51 102 75
3 51 126 131
3 51 131 102
3 52 103 163
3 52 163 182
3 53 79 81
3 53 81 112
3 53 112 115
3 53 115 80
3 54 83 56
3 54 56 86
3 54 86 82
3 54 82 55
3 54 85 83
3 55 72 85
3 56 83 87
3 56 87 58
3 56 58 90
3 56 90 86
3 57 73 99
3 57 99 89
3 57 89 97
3 57 97 107
3 57 107 88
3 57 88 73
3 58 87 91
3 58 91 62
3 58 62 94
3 58 94 90
3 59 62 95
3 59 95 93
3 59 63 92
3 59 92 62
3 60 118 132
3 60 132 156
3 61 156 181
3 62 91 95
3 62 92 94
3 63 130 133
3 63 133 92
3 64 93 168
3 64 168 180
3 65 71 137
3 65 137 134
3 65 134 69
3 66 179 72
3 67 100 149
3 67 149 135
3 68 183 178
3 68 178 101
3 68 101 74
3 69 134 136
3 71 84 142
3 71 142 137
3 72 179 176
3 72 176 85
3 73 74 101
3 73 101 99
3 73 88 98
3 73 98 74
3 74 98 100
3 75 77 103
3 76 102 150
3 76 150 138
3 77 185 175
3 77 175 103
3 78 80 140
3 78 140 139
3 78 139 113
3 78 113 111
3 79 114 159
3 80 115 155
3 80 155 140
3 81 173 116
3 81 116 112
3 82 86 143
3 82 143 141
3 82 141 84
3 83 172 87
3 83 171 172
3 84 141 142
3 85 176 171
3 86 90 145
3 86 145 143
3 87 172 170
3 87 170 91
3 88 107 152
3 88 152 144
3 88 144 98
3 89 99 165
3 89 165 169
3 89 169 108
3 89 108 97
3 90 94 147
3 90 147 145
3 91 170 167
3 91 167 95
3 92 133 146
3 92 146 94
3 93 95 166
3 93 166 168
3 94 146 147
3 95 167 166
3 96 106 111
3 96 111 113
3 96 113 105
3 98 144 148
3 98 148 100
3 99 101 164
3 99 164 165
3 100 148 149
3 101 178 164
3 102 131 150
3 103 175 163
3 104 116 110
3 104 110 157
3 104 157 109
3 104 109 112
3 104 112 116
3 105 113 154
3 105 154 151
3 106 162 114
3 106 114 111
3 108 169 161
3 109 157 153
3 109 153 115
3 109 115 112
3 110 158 160
3 110 160 157
3 110 116 158
3 113 139 154
3 114 162 159
3 115 153 155
3 116 173 158
3 117 122 289
3 117 289 303
3 117 303 119
3 118 120 295
3 118 295 301
3 118 301 132
3 120 121 291
3 120 291 295
3 122 125 282
3 122 282 289
3 123 287 124
3 124 287 285
3 124 285 125
3 125 285 282
3 126 129 273
3 126 273 280
3 126 280 131
3 127 128 275
3 128 138 236
3 128 236 275
3 129 136 243
3 129 243 273
3 130 135 245
3 130 245 265
3 130 265 133
3 131 280 261
3 131 261 150
3 132 301 252
3 132 252 156
3 133 265 249
3 133 249 146
3 134 137 241
3 134 241 247
3 134 247 136
3 135 149 212
3 135 212 245
3 136 247 243
3 137 142 228
3 137 228 241
3 138 150 210
3 138 210 236
3 139 140 232
3 139 232 234
3 139 234 154
3 140 155 197
3 140 197 232
3 141 143 226
3 141 226 230
3 141 230 142
3 143 145 220
3 143 220 226
3 144 152 205
3 144 205 224
3 144 224 148
3 145 147 218
3 145 218 220
3 146 249 222
3 146 222 147
3 147 222 218
3 148 224 214
3 148 214 149
3 149 214 212
3 150 261 210
3 151 154 199
3 151 199 207
3 153 157 203
3 153 203 155
3 154 234 199
3 155 203 197
3 156 272 253
3 156 253 181
3 156 252 272
3 157 204 209
3 157 209 203
3 157 160 204
3 158 198 160
3 158 173 233
3 158 233 198
3 159 208 200
3 159 162 208
3 160 198 204
3 161 225 206
3 161 169 225
3 163 175 237
3 163 237 211
3 163 211 182
3 164 246 213
3 164 213 165
3 164 178 246
3 165 213 215
3 165 215 169
3 166 167 221
3 166 221 219
3 166 219 168
3 167 170 227
3 167 227 221
3 168 219 223
3 168 223 180
3 169 215 225
3 170 172 231
3 170 231 227
3 171 242 229
3 171 229 172
3 171 176 242
3 172 229 231
3 173 235 233
3 176 248 242
3 176 179 248
3 178 266 246
3 178 183 266
3 180 223 250
3 180 250 183
3 181 253 195
3 182 211 262
3 182 262 187
3 183 250 266
3 184 281 274
3 184 187 281
3 185 186 278
3 186 190 288
3 186 288 278
3 187 262 281
3 188 191 290
3 188 290 283
3 188 283 189
3 189 283 286
3 189 286 190
3 190 286 288
3 191 196 304
3 191 304 290
3 192 193 296
3 192 296 292
3 192 292 194
3 193 195 302
3 193 302 296
3 194 292 299
3 194 299 196
3 195 253 302
3 196 299 304
3 197 203 209
3 197 209 201
3 197 201 232
3 198 201 204
3 198 233 260
3 198 260 201
3 199 234 263
3 199 263 202
3 199 202 207
3 200 217 202
3 200 202 235
3 200 208 217
3 201 209 204
3 201 260 232
3 202 217 207
3 202 263 235
3 205 216 224
3 206 256 216
3 206 225 256
3 210 238 236
3 211 237 264
3 211 264 238
3 211 238 262
3 212 214 240
3 212 240 239
3 212 239 245
3 213 269 239
3 213 239 215
3 213 246 269
3 214 224 256
3 214 256 240
3 215 239 240
3 215 240 225
3 216 256 224
3 218 222 255
3 218 255 251
3 218 251 220
3 219 221 254
3 219 254 251
3 219 251 223
3 220 251 254
3 220 254 226
3 221 227 257
3 221 257 254
3 222 249 271
3 222 271 255
3 223 251 255
3 223 255 250
3 225 240 256
3 226 254 257
3 226 257 230
3 227 231 259
3 227 259 257
3 228 230 259
3 228 259 258
3 228 258 241
3 229 267 258
3 229 242 267
3 230 257 259
3 231 258 259
3 232 260 234
3 233 263 260
3 233 235 263
3 234 260 263
3 236 238 264
3 236 264 275
3 239 269 245
3 241 258 267
3 241 267 247
3 242 270 267
3 242 248 270
3 243 247 270
3 243 270 268
3 243 268 273
3 245 269 265
3 246 266 284
3 246 284 269
3 247 267 270
3 248 268 270
3 249 265 284
3 249 284 271
3 250 255 271
3 250 271 266
3 252 301 312
3 252 312 272
3 253 272 302
3 261 280 300
3 265 269 284
3 266 271 284
3 272 312 302
3 274 281 300
3 278 288 307
3 278 307 297
3 282 285 306
3 282 306 305
3 282 305 289
3 283 290 308
3 283 308 305
3 283 305 286
3 285 287 307
3 285 307 306
3 286 305 306
3 286 306 288
3 287 297 307
3 288 306 307
3 289 305 308
3 289 308 303
3 290 304 313
3 290 313 308
3 291 311 309
3 291 309 295
3 292 296 310
3 292 310 309
3 292 309 299
3 295 309 310
3 295 310 301
3 296 302 312
3 296 312 310
3 299 309 311
3 299 311 304
3 301 310 312
3 303 308 313
3 304 311 313
